<svg width="190" height="44" viewBox="0 0 190 44" fill="none" xmlns="http://www.w3.org/2000/svg">
<path d="M68.3877 29.528H61.0517L59.8757 33H54.8637L61.9757 13.344H67.5197L74.6317 33H69.5637L68.3877 29.528ZM67.1557 25.832L64.7197 18.636L62.3117 25.832H67.1557ZM83.1522 33.224C81.7896 33.224 80.5762 32.9907 79.5122 32.524C78.4482 32.0573 77.6082 31.4227 76.9922 30.62C76.3762 29.7987 76.0309 28.884 75.9562 27.876H80.6882C80.7442 28.4173 80.9962 28.856 81.4442 29.192C81.8922 29.528 82.4429 29.696 83.0962 29.696C83.6936 29.696 84.1509 29.584 84.4682 29.36C84.8042 29.1173 84.9722 28.8093 84.9722 28.436C84.9722 27.988 84.7389 27.6613 84.2722 27.456C83.8056 27.232 83.0496 26.9893 82.0042 26.728C80.8842 26.4667 79.9509 26.196 79.2042 25.916C78.4576 25.6173 77.8136 25.16 77.2722 24.544C76.7309 23.9093 76.4602 23.06 76.4602 21.996C76.4602 21.1 76.7029 20.288 77.1882 19.56C77.6922 18.8133 78.4202 18.2253 79.3722 17.796C80.3429 17.3667 81.4909 17.152 82.8162 17.152C84.7762 17.152 86.3162 17.6373 87.4362 18.608C88.5749 19.5787 89.2282 20.8667 89.3962 22.472H84.9722C84.8976 21.9307 84.6549 21.5013 84.2442 21.184C83.8522 20.8667 83.3296 20.708 82.6762 20.708C82.1162 20.708 81.6869 20.82 81.3882 21.044C81.0896 21.2493 80.9402 21.5387 80.9402 21.912C80.9402 22.36 81.1736 22.696 81.6402 22.92C82.1256 23.144 82.8722 23.368 83.8802 23.592C85.0376 23.8907 85.9802 24.1893 86.7082 24.488C87.4362 24.768 88.0709 25.2347 88.6122 25.888C89.1722 26.5227 89.4616 27.3813 89.4802 28.464C89.4802 29.3787 89.2189 30.2 88.6962 30.928C88.1922 31.6373 87.4549 32.1973 86.4842 32.608C85.5322 33.0187 84.4216 33.224 83.1522 33.224ZM101.958 33L97.1975 26.448V33H92.4095V12.28H97.1975V23.732L101.93 17.376H107.838L101.342 25.216L107.894 33H101.958ZM111.958 33.224C111.118 33.224 110.427 32.9813 109.886 32.496C109.363 31.992 109.102 31.376 109.102 30.648C109.102 29.9013 109.363 29.276 109.886 28.772C110.427 28.268 111.118 28.016 111.958 28.016C112.779 28.016 113.451 28.268 113.974 28.772C114.515 29.276 114.786 29.9013 114.786 30.648C114.786 31.376 114.515 31.992 113.974 32.496C113.451 32.9813 112.779 33.224 111.958 33.224ZM122.408 19.588C122.856 18.86 123.5 18.272 124.34 17.824C125.18 17.376 126.142 17.152 127.224 17.152C128.512 17.152 129.679 17.4787 130.724 18.132C131.77 18.7853 132.591 19.7187 133.188 20.932C133.804 22.1453 134.112 23.5547 134.112 25.16C134.112 26.7653 133.804 28.184 133.188 29.416C132.591 30.6293 131.77 31.572 130.724 32.244C129.679 32.8973 128.512 33.224 127.224 33.224C126.123 33.224 125.162 33.0093 124.34 32.58C123.519 32.132 122.875 31.544 122.408 30.816V33H117.62V12.28H122.408V19.588ZM129.24 25.16C129.24 23.9653 128.904 23.032 128.232 22.36C127.579 21.6693 126.767 21.324 125.796 21.324C124.844 21.324 124.032 21.6693 123.36 22.36C122.707 23.0507 122.38 23.9933 122.38 25.188C122.38 26.3827 122.707 27.3253 123.36 28.016C124.032 28.7067 124.844 29.052 125.796 29.052C126.748 29.052 127.56 28.7067 128.232 28.016C128.904 27.3067 129.24 26.3547 129.24 25.16ZM151.352 24.936C151.352 25.384 151.324 25.8507 151.268 26.336H140.432C140.507 27.3067 140.815 28.0533 141.356 28.576C141.916 29.08 142.598 29.332 143.4 29.332C144.595 29.332 145.426 28.828 145.892 27.82H150.988C150.727 28.8467 150.251 29.7707 149.56 30.592C148.888 31.4133 148.039 32.0573 147.012 32.524C145.986 32.9907 144.838 33.224 143.568 33.224C142.038 33.224 140.675 32.8973 139.48 32.244C138.286 31.5907 137.352 30.6573 136.68 29.444C136.008 28.2307 135.672 26.812 135.672 25.188C135.672 23.564 135.999 22.1453 136.652 20.932C137.324 19.7187 138.258 18.7853 139.452 18.132C140.647 17.4787 142.019 17.152 143.568 17.152C145.08 17.152 146.424 17.4693 147.6 18.104C148.776 18.7387 149.691 19.644 150.344 20.82C151.016 21.996 151.352 23.368 151.352 24.936ZM146.452 23.676C146.452 22.8547 146.172 22.2013 145.612 21.716C145.052 21.2307 144.352 20.988 143.512 20.988C142.71 20.988 142.028 21.2213 141.468 21.688C140.927 22.1547 140.591 22.8173 140.46 23.676H146.452ZM156.286 15.752C155.446 15.752 154.756 15.5093 154.214 15.024C153.692 14.52 153.43 13.904 153.43 13.176C153.43 12.4293 153.692 11.8133 154.214 11.328C154.756 10.824 155.446 10.572 156.286 10.572C157.108 10.572 157.78 10.824 158.302 11.328C158.844 11.8133 159.114 12.4293 159.114 13.176C159.114 13.904 158.844 14.52 158.302 15.024C157.78 15.5093 157.108 15.752 156.286 15.752ZM158.666 17.376V33H153.878V17.376H158.666ZM166.924 19.98C167.484 19.1213 168.184 18.4493 169.024 17.964C169.864 17.46 170.797 17.208 171.824 17.208V22.276H170.508C169.313 22.276 168.417 22.5373 167.82 23.06C167.223 23.564 166.924 24.46 166.924 25.748V33H162.136V17.376H166.924V19.98ZM173.161 25.16C173.161 23.5547 173.459 22.1453 174.057 20.932C174.673 19.7187 175.503 18.7853 176.549 18.132C177.594 17.4787 178.761 17.152 180.049 17.152C181.15 17.152 182.111 17.376 182.933 17.824C183.773 18.272 184.417 18.86 184.865 19.588V17.376H189.653V33H184.865V30.788C184.398 31.516 183.745 32.104 182.905 32.552C182.083 33 181.122 33.224 180.021 33.224C178.751 33.224 177.594 32.8973 176.549 32.244C175.503 31.572 174.673 30.6293 174.057 29.416C173.459 28.184 173.161 26.7653 173.161 25.16ZM184.865 25.188C184.865 23.9933 184.529 23.0507 183.857 22.36C183.203 21.6693 182.401 21.324 181.449 21.324C180.497 21.324 179.685 21.6693 179.013 22.36C178.359 23.032 178.033 23.9653 178.033 25.16C178.033 26.3547 178.359 27.3067 179.013 28.016C179.685 28.7067 180.497 29.052 181.449 29.052C182.401 29.052 183.203 28.7067 183.857 28.016C184.529 27.3253 184.865 26.3827 184.865 25.188Z" fill="#0D114F"/>
<rect width="43.832" height="43.832" rx="13" fill="url(#paint0_linear)"/>
<g filter="url(#filter0_di)">
<path d="M33.2581 32.4131H29.3488C29.1853 32.4131 29.0508 32.2854 29.0363 32.1226C29.0317 32.0711 29.0268 32.0211 29.0215 31.9726C28.7974 29.9298 26.5983 28.1753 24.5583 28.4238C23.0693 28.6052 21.8351 29.7293 20.3445 29.8976C19.3393 30.0111 18.4622 29.9594 17.4597 29.7629C16.5809 29.5908 15.7327 29.2757 14.952 28.8372C13.1132 27.8044 12.126 26.741 11.2107 25.1387C10.681 24.2114 10.303 23.1958 10.1655 22.1368C10.0517 21.2603 10.0589 20.4879 10.1545 19.6373C10.3005 18.3379 10.7168 17.0732 11.3964 15.956C12.3505 14.3877 13.3817 13.4126 15.0617 12.4997C15.7732 12.1131 16.5387 11.8305 17.3297 11.6568C19.3325 11.2169 20.629 11.3458 22.576 11.956C23.6591 12.2955 24.8356 13.023 25.8362 13.9723C28.0244 16.0482 28.1912 19.3058 28.2465 22.3215C28.2516 22.601 27.9961 22.8125 27.721 22.7627C26.3697 22.5184 25.3982 22.4987 24.0703 22.7098C23.7144 22.7664 23.4215 22.398 23.5175 22.0506C23.5592 21.8998 23.5918 21.7518 23.6163 21.6059C24.0089 19.2711 22.4112 16.606 20.0548 16.3763C18.718 16.246 17.3944 16.7918 16.4139 17.8864C15.8287 18.4381 15.505 19.3034 15.4029 20.2262C15.1383 22.6173 17.0941 24.9295 19.4971 25.0439C19.9556 25.0657 20.3982 24.999 20.8506 24.8457C22.276 24.3625 23.6654 23.6404 25.1662 23.7534C29.6813 24.0934 32.8523 26.1289 33.6867 31.9218C33.7241 32.1814 33.5204 32.4131 33.2581 32.4131Z" fill="#FAFAFA"/>
</g>
<defs>
<filter id="filter0_di" x="8.44912" y="11.3964" width="26.8744" height="24.2814" filterUnits="userSpaceOnUse" color-interpolation-filters="sRGB">
<feFlood flood-opacity="0" result="BackgroundImageFix"/>
<feColorMatrix in="SourceAlpha" type="matrix" values="0 0 0 0 0 0 0 0 0 0 0 0 0 0 0 0 0 0 127 0"/>
<feOffset dy="1.63237"/>
<feGaussianBlur stdDeviation="0.816183"/>
<feColorMatrix type="matrix" values="0 0 0 0 0 0 0 0 0 0 0 0 0 0 0 0 0 0 0.07 0"/>
<feBlend mode="normal" in2="BackgroundImageFix" result="effect1_dropShadow"/>
<feBlend mode="normal" in="SourceGraphic" in2="effect1_dropShadow" result="shape"/>
<feColorMatrix in="SourceAlpha" type="matrix" values="0 0 0 0 0 0 0 0 0 0 0 0 0 0 0 0 0 0 127 0" result="hardAlpha"/>
<feOffset dy="1.63237"/>
<feGaussianBlur stdDeviation="1.02023"/>
<feComposite in2="hardAlpha" operator="arithmetic" k2="-1" k3="1"/>
<feColorMatrix type="matrix" values="0 0 0 0 0.219608 0 0 0 0 0.533333 0 0 0 0 1 0 0 0 0.13 0"/>
<feBlend mode="normal" in2="shape" result="effect2_innerShadow"/>
</filter>
<linearGradient id="paint0_linear" x1="52.463" y1="-66.3077" x2="19.6129" y2="48.5381" gradientUnits="userSpaceOnUse">
<stop stop-color="#5498FF"/>
<stop offset="0.515625" stop-color="#428EFF"/>
<stop offset="1" stop-color="#297FFF"/>
</linearGradient>
</defs>
</svg>
